<?xml version="1.0" encoding="UTF-8" standalone="no"?>
<svg
   xmlns:dc="http://purl.org/dc/elements/1.1/"
   xmlns:cc="http://creativecommons.org/ns#"
   xmlns:rdf="http://www.w3.org/1999/02/22-rdf-syntax-ns#"
   xmlns:svg="http://www.w3.org/2000/svg"
   xmlns="http://www.w3.org/2000/svg"
   xmlns:sodipodi="http://sodipodi.sourceforge.net/DTD/sodipodi-0.dtd"
   xmlns:inkscape="http://www.inkscape.org/namespaces/inkscape"
   version="1.1"
   id="Layer_1"
   x="0px"
   y="0px"
   width="55px"
   height="55px"
   viewBox="0 0 55 55"
   style="enable-background:new 0 0 55 55;"
   xml:space="preserve"
   inkscape:version="0.91 r"
   sodipodi:docname="icon.svg"><metadata
     id="metadata11"><rdf:RDF><cc:Work
         rdf:about=""><dc:format>image/svg+xml</dc:format><dc:type
           rdf:resource="http://purl.org/dc/dcmitype/StillImage" /><dc:title></dc:title></cc:Work></rdf:RDF></metadata><defs
     id="defs9" /><sodipodi:namedview
     pagecolor="#ffffff"
     bordercolor="#666666"
     borderopacity="1"
     objecttolerance="10"
     gridtolerance="10"
     guidetolerance="10"
     inkscape:pageopacity="0"
     inkscape:pageshadow="2"
     inkscape:window-width="1279"
     inkscape:window-height="885"
     id="namedview7"
     showgrid="false"
     showguides="true"
     inkscape:zoom="8.5818184"
     inkscape:cx="19.99958"
     inkscape:cy="30.139179"
     inkscape:window-x="521"
     inkscape:window-y="125"
     inkscape:window-maximized="0"
     inkscape:current-layer="Layer_1" /><path
     inkscape:connector-curvature="0"
     id="path5"
     d="m 47,14.215 0,24.429 c 0,0.884 -0.314,1.712 -0.943,2.341 C 45.428,41.614 44.67,42 43.787,42 L 11.643,42 C 10.76,42 9.788,41.614 9.159,40.984 8.529,40.355 8,39.527 8,38.644 L 8,14.215 C 8,13.331 8.529,12.574 9.158,11.944 9.787,11.315 10.76,11 11.643,11 l 32.145,0 c 0.883,0 1.641,0.315 2.27,0.944 0.628,0.63 0.942,1.387 0.942,2.271 z"
     sodipodi:nodetypes="ssssscsscsscs" /><rect
     style="opacity:1;fill:#ffffff;fill-opacity:1;fill-rule:nonzero;stroke:none;stroke-width:1;stroke-linecap:square;stroke-linejoin:round;stroke-miterlimit:4;stroke-dasharray:1.99999998, 1;stroke-dashoffset:3;stroke-opacity:1"
     id="rect4140"
     width="33.266323"
     height="13.989738"
     x="10.866838"
     y="25.20438"
     ry="1.5655224"
     rx="1.5655223" /><rect
     style="opacity:1;fill:#ffffff;fill-opacity:1;fill-rule:nonzero;stroke:none;stroke-width:1;stroke-linecap:square;stroke-linejoin:round;stroke-miterlimit:4;stroke-dasharray:1.99999998, 1;stroke-dashoffset:3;stroke-opacity:1"
     id="rect4140-9"
     width="21.264206"
     height="9.2541904"
     x="22.868956"
     y="13.348864"
     ry="1.5655223"
     rx="1.5655223" /><path
     sodipodi:type="star"
     style="opacity:1;fill:#ffffff;fill-opacity:1;fill-rule:nonzero;stroke:none;stroke-width:1;stroke-linecap:square;stroke-linejoin:round;stroke-miterlimit:4;stroke-dasharray:2, 1;stroke-dashoffset:3;stroke-opacity:1"
     id="path4200"
     sodipodi:sides="5"
     sodipodi:cx="15.572828"
     sodipodi:cy="19.816942"
     sodipodi:r1="7.1090059"
     sodipodi:r2="3.554503"
     sodipodi:arg1="0.80179014"
     sodipodi:arg2="1.4301087"
     inkscape:flatsided="false"
     inkscape:rounded="0.1"
     inkscape:randomized="0"
     d="m 20.516583,24.925489 c -0.339241,0.328298 -3.977908,-1.655361 -4.445328,-1.589163 -0.46742,0.0662 -3.412178,2.982222 -3.829239,2.761034 -0.417061,-0.221187 0.3451,-4.29475 0.137702,-4.718837 -0.207399,-0.424086 -3.8906832,-2.323616 -3.8092001,-2.788616 0.081483,-0.464999 4.1911921,-0.998941 4.5304331,-1.327238 0.339241,-0.328298 1.007604,-4.418297 1.475024,-4.484494 0.46742,-0.0662 2.245199,3.67737 2.66226,3.898558 0.417061,0.221188 4.513416,-0.40704 4.720814,0.01705 0.207399,0.424087 -2.803582,3.271681 -2.885066,3.73668 -0.08148,0.464999 1.781841,4.166731 1.4426,4.495029 z"
     inkscape:transform-center-x="-0.0095531191"
     inkscape:transform-center-y="-0.41506789"
     transform="matrix(0.67025491,0.08452017,-0.09938198,0.61298092,6.6133054,4.921027)" /></svg>